<svg width="58" height="67" fill="none" xmlns="http://www.w3.org/2000/svg"><path d="M10.04.995c-4.307 3.016-5.443 9.013-2.427 13.321l15.51 22.152-5.64 8.054c-5.178-2.999-11.879-1.588-15.375 3.406C-1.583 53.2-.302 60.466 4.97 64.159c5.273 3.691 12.54 2.411 16.232-2.862a11.651 11.651 0 00.89-11.873L29 39.558l6.907 9.865a11.655 11.655 0 00.89 11.873c3.693 5.273 10.96 6.553 16.232 2.862 5.273-3.693 6.554-10.959 2.862-16.231-3.496-4.993-10.196-6.404-15.374-3.405l-5.641-8.055 15.51-22.15c3.016-4.309 1.88-10.306-2.427-13.322L29 28.075 10.04.995zm7.683 53.592a6.042 6.042 0 11-12.084 0 6.042 6.042 0 0112.084 0zm34.639 0a6.042 6.042 0 11-12.084 0 6.042 6.042 0 0112.084 0z" fill="#008FDD"/></svg>